<svg width="191" height="103" viewBox="0 0 191 103" fill="none" xmlns="http://www.w3.org/2000/svg">
<path d="M9.16046 102.236C4.53478 102.236 0.748266 98.4795 1.13756 93.8702C2.70604 75.2994 9.47364 57.4431 20.7798 42.282C33.7753 24.8556 52.0998 11.8847 73.1269 5.22837C94.1541 -1.42794 116.804 -1.42793 137.832 5.22839C156.11 11.0146 172.347 21.5726 184.815 35.681C187.904 39.1758 187.042 44.5026 183.235 47.1973C179.559 49.7991 174.508 48.9631 171.489 45.6217C161.101 34.1253 147.702 25.5128 132.655 20.7496C114.992 15.1583 95.9661 15.1583 78.3033 20.7496C60.6405 26.3409 45.2479 37.2365 34.3317 51.8747C25.1056 64.2465 19.4774 78.7549 17.9557 93.8745C17.4925 98.4769 13.7862 102.236 9.16046 102.236Z" fill="#FFCD71"/>
</svg>
