<svg width="30" height="30" viewBox="0 0 30 30" fill="none" xmlns="http://www.w3.org/2000/svg">
<path fill-rule="evenodd" clip-rule="evenodd" d="M23.8786 16.0642H26.6338C28.1565 16.0642 29.389 17.2337 29.389 18.6786C29.389 20.1235 28.1565 21.293 26.6338 21.293H2.75522C1.2325 21.293 0 20.1235 0 18.6786C0 17.2337 1.2325 16.0642 2.75522 16.0642H5.51044L6.53538 7.30782C6.99826 3.36186 10.5121 0.377991 14.6945 0.377991C18.8769 0.377991 22.3907 3.36186 22.8536 7.30782L23.8786 16.0642Z" fill="#131026"/>
<path fill-rule="evenodd" clip-rule="evenodd" d="M14.6945 23.0359C16.7223 23.0359 18.3681 24.5975 18.3681 26.5217C18.3681 28.4459 16.7223 30.0075 14.6945 30.0075C12.6667 30.0075 11.0209 28.4459 11.0209 26.5217C11.0209 24.5975 12.6667 23.0359 14.6945 23.0359Z" fill="#131026"/>
</svg>
