<svg width="211" height="103" viewBox="0 0 211 103" fill="none" xmlns="http://www.w3.org/2000/svg">
<path d="M9.16046 102.236C4.53478 102.236 0.748292 98.4797 1.13763 93.8704C2.02698 83.3416 4.59139 72.9939 8.7543 63.2024C14.0157 50.8272 21.7274 39.5828 31.4492 30.1112C41.171 20.6397 52.7124 13.1264 65.4145 8.00043C78.1166 2.87445 91.7306 0.236143 105.479 0.236145C119.228 0.236147 132.842 2.87446 145.544 8.00044C158.246 13.1264 169.788 20.6397 179.509 30.1113C189.231 39.5828 196.943 50.8272 202.204 63.2025C206.367 72.994 208.932 83.3416 209.821 93.8704C210.21 98.4797 206.424 102.236 201.798 102.236V102.236C197.172 102.236 193.466 98.477 193.003 93.8746C192.159 85.4909 190.049 77.2587 186.728 69.4478C182.309 59.0527 175.831 49.6074 167.665 41.6513C159.498 33.6951 149.803 27.384 139.134 23.0782C128.464 18.7723 117.028 16.5562 105.479 16.5562C93.9304 16.5562 82.4946 18.7723 71.8248 23.0781C61.1551 27.384 51.4603 33.6951 43.294 41.6512C35.1277 49.6074 28.6499 59.0527 24.2303 69.4478C20.9095 77.2587 18.7996 85.4909 17.9558 93.8746C17.4926 98.477 13.7862 102.236 9.16046 102.236V102.236Z" fill="#FFF7E8"/>
</svg>
