<svg width="21" height="21" viewBox="0 0 21 21" fill="none" xmlns="http://www.w3.org/2000/svg">
<path fill-rule="evenodd" clip-rule="evenodd" d="M6.09478 1.17684C6.4048 1.46897 6.41811 1.95583 6.12451 2.2643C5.39449 3.03126 4.85489 3.97583 4.5763 5.02184C4.46692 5.4325 4.04367 5.67718 3.63094 5.56836C3.2182 5.45953 2.97228 5.03841 3.08165 4.62775C3.42796 3.32748 4.09799 2.15601 5.00183 1.20642C5.29543 0.89796 5.78476 0.884717 6.09478 1.17684Z" fill="#30E578"/>
<path fill-rule="evenodd" clip-rule="evenodd" d="M15.3011 1.17684C14.9911 1.46897 14.9778 1.95583 15.2714 2.2643C16.0014 3.03126 16.541 3.97583 16.8196 5.02184C16.9289 5.4325 17.3522 5.67718 17.7649 5.56836C18.1777 5.45953 18.4236 5.03841 18.3142 4.62775C17.9679 3.32748 17.2979 2.15601 16.394 1.20642C16.1004 0.89796 15.6111 0.884717 15.3011 1.17684Z" fill="#30E578"/>
<path fill-rule="evenodd" clip-rule="evenodd" d="M10.6543 0.966194C7.58659 0.966194 5.0997 3.44059 5.0997 6.4929V9.57013C5.0997 10.0532 4.8976 10.5145 4.54189 10.8433L3.06357 12.2098C1.61776 13.5463 2.00319 15.9075 3.77277 16.7452C4.65886 17.1647 5.57507 17.4995 6.50919 17.7495C6.53352 17.8048 6.56086 17.8649 6.59129 17.9291C6.74368 18.2503 6.97853 18.6828 7.30798 19.1199C7.95813 19.9825 9.06168 20.9661 10.697 20.9661C12.3324 20.9661 13.436 19.9825 14.0861 19.1199C14.4156 18.6828 14.6504 18.2503 14.8028 17.9291C14.8327 17.8661 14.8595 17.8071 14.8835 17.7526C15.8091 17.5049 16.7171 17.1732 17.5957 16.7573C19.3833 15.9111 19.7295 13.5275 18.256 12.2123L16.7178 10.8394C16.3518 10.5128 16.1466 10.0441 16.1553 9.5551L16.2081 6.59081C16.2631 3.50067 13.7605 0.966194 10.6543 0.966194ZM12.8808 18.1544C11.4315 18.3507 9.96092 18.3497 8.51171 18.1522C8.52268 18.1671 8.53378 18.182 8.54502 18.1969C9.0544 18.8728 9.75478 19.4276 10.697 19.4276C11.6393 19.4276 12.3397 18.8728 12.8491 18.1969C12.8597 18.1827 12.8703 18.1685 12.8808 18.1544ZM16.9314 15.3681C12.9884 17.2347 8.38288 17.2239 4.43708 15.356C3.64134 14.9793 3.48054 13.9243 4.116 13.3369L5.59432 11.9704C6.26492 11.3505 6.64593 10.4809 6.64593 9.57013V6.4929C6.64593 4.29026 8.44055 2.50466 10.6543 2.50466C12.8959 2.50466 14.7018 4.33361 14.6621 6.56355L14.6093 9.52785C14.5926 10.4633 14.9853 11.3598 15.6853 11.9846L17.2235 13.3575C17.8753 13.9393 17.7222 14.9938 16.9314 15.3681Z" fill="#30E578"/>
</svg>
