<svg width="21" height="21" viewBox="0 0 21 21" fill="none" xmlns="http://www.w3.org/2000/svg">
<path fill-rule="evenodd" clip-rule="evenodd" d="M6.09478 0.300987C6.4048 0.593111 6.41811 1.07998 6.12451 1.38844C5.39449 2.1554 4.85489 3.09997 4.5763 4.14598C4.46692 4.55664 4.04367 4.80132 3.63094 4.6925C3.2182 4.58367 2.97228 4.16255 3.08165 3.75189C3.42796 2.45162 4.09799 1.28015 5.00183 0.330565C5.29543 0.0221056 5.78476 0.00886287 6.09478 0.300987Z" fill="#4339F2"/>
<path fill-rule="evenodd" clip-rule="evenodd" d="M15.3011 0.300987C14.9911 0.593111 14.9778 1.07998 15.2714 1.38844C16.0014 2.1554 16.541 3.09997 16.8196 4.14598C16.9289 4.55664 17.3522 4.80132 17.7649 4.6925C18.1777 4.58367 18.4236 4.16255 18.3142 3.75189C17.9679 2.45162 17.2979 1.28015 16.394 0.330565C16.1004 0.0221056 15.6111 0.00886287 15.3011 0.300987Z" fill="#4339F2"/>
<path fill-rule="evenodd" clip-rule="evenodd" d="M10.6543 0.090332C7.58659 0.090332 5.0997 2.56472 5.0997 5.61703V8.69426C5.0997 9.17735 4.8976 9.63865 4.54189 9.96746L3.06357 11.334C1.61776 12.6705 2.00319 15.0317 3.77277 15.8694C4.65886 16.2889 5.57507 16.6237 6.50919 16.8737C6.53352 16.929 6.56086 16.9891 6.59129 17.0533C6.74368 17.3745 6.97853 17.807 7.30798 18.2441C7.95813 19.1067 9.06168 20.0903 10.697 20.0903C12.3324 20.0903 13.436 19.1067 14.0861 18.2441C14.4156 17.807 14.6504 17.3745 14.8028 17.0533C14.8327 16.9903 14.8595 16.9313 14.8835 16.8768C15.8091 16.6291 16.7171 16.2974 17.5957 15.8815C19.3833 15.0353 19.7295 12.6517 18.256 11.3365L16.7178 9.96355C16.3518 9.63695 16.1466 9.16827 16.1553 8.67923L16.2081 5.71494C16.2631 2.6248 13.7605 0.090332 10.6543 0.090332ZM12.8808 17.2786C11.4315 17.4749 9.96092 17.4739 8.51171 17.2764C8.52268 17.2913 8.53378 17.3062 8.54502 17.3211C9.0544 17.997 9.75478 18.5518 10.697 18.5518C11.6393 18.5518 12.3397 17.997 12.8491 17.3211C12.8597 17.3069 12.8703 17.2927 12.8808 17.2786ZM16.9314 14.4923C12.9884 16.3589 8.38288 16.3481 4.43708 14.4802C3.64134 14.1035 3.48054 13.0485 4.116 12.4611L5.59432 11.0946C6.26492 10.4747 6.64593 9.60501 6.64593 8.69426V5.61703C6.64593 3.41439 8.44055 1.62879 10.6543 1.62879C12.8959 1.62879 14.7018 3.45774 14.6621 5.68768L14.6093 8.65198C14.5926 9.58747 14.9853 10.484 15.6853 11.1088L17.2235 12.4817C17.8753 13.0635 17.7222 14.118 16.9314 14.4923Z" fill="#4339F2"/>
</svg>
