<svg width="21" height="21" viewBox="0 0 21 21" fill="none" xmlns="http://www.w3.org/2000/svg">
<path fill-rule="evenodd" clip-rule="evenodd" d="M6.09478 0.552694C6.4048 0.844818 6.41811 1.33169 6.12451 1.64015C5.39449 2.40711 4.85489 3.35168 4.5763 4.39769C4.46692 4.80835 4.04367 5.05303 3.63094 4.94421C3.2182 4.83538 2.97228 4.41426 3.08165 4.0036C3.42796 2.70333 4.09799 1.53186 5.00183 0.582272C5.29543 0.273813 5.78476 0.26057 6.09478 0.552694Z" fill="#FB9318"/>
<path fill-rule="evenodd" clip-rule="evenodd" d="M15.3011 0.552694C14.9911 0.844818 14.9778 1.33169 15.2714 1.64015C16.0014 2.40711 16.541 3.35168 16.8196 4.39769C16.9289 4.80835 17.3522 5.05303 17.7649 4.94421C18.1777 4.83538 18.4236 4.41426 18.3142 4.0036C17.9679 2.70333 17.2979 1.53186 16.394 0.582272C16.1004 0.273813 15.6111 0.26057 15.3011 0.552694Z" fill="#FB9318"/>
<path fill-rule="evenodd" clip-rule="evenodd" d="M10.6543 0.342046C7.58659 0.342046 5.0997 2.81644 5.0997 5.86875V8.94598C5.0997 9.42907 4.8976 9.89037 4.54189 10.2192L3.06357 11.5857C1.61776 12.9222 2.00319 15.2834 3.77277 16.1211C4.65886 16.5406 5.57507 16.8754 6.50919 17.1254C6.53352 17.1807 6.56086 17.2408 6.59129 17.305C6.74368 17.6262 6.97853 18.0587 7.30798 18.4958C7.95813 19.3584 9.06168 20.342 10.697 20.342C12.3324 20.342 13.436 19.3584 14.0861 18.4958C14.4156 18.0587 14.6504 17.6262 14.8028 17.305C14.8327 17.242 14.8595 17.183 14.8835 17.1285C15.8091 16.8808 16.7171 16.5491 17.5957 16.1332C19.3833 15.287 19.7295 12.9034 18.256 11.5882L16.7178 10.2153C16.3518 9.88867 16.1466 9.41999 16.1553 8.93095L16.2081 5.96666C16.2631 2.87652 13.7605 0.342046 10.6543 0.342046ZM12.8808 17.5303C11.4315 17.7266 9.96092 17.7256 8.51171 17.5281C8.52268 17.543 8.53378 17.5579 8.54502 17.5728C9.0544 18.2487 9.75478 18.8035 10.697 18.8035C11.6393 18.8035 12.3397 18.2487 12.8491 17.5728C12.8597 17.5586 12.8703 17.5444 12.8808 17.5303ZM16.9314 14.744C12.9884 16.6106 8.38288 16.5998 4.43708 14.7319C3.64134 14.3552 3.48054 13.3002 4.116 12.7128L5.59432 11.3463C6.26492 10.7264 6.64593 9.85673 6.64593 8.94598V5.86875C6.64593 3.66611 8.44055 1.88051 10.6543 1.88051C12.8959 1.88051 14.7018 3.70946 14.6621 5.9394L14.6093 8.9037C14.5926 9.83919 14.9853 10.7357 15.6853 11.3605L17.2235 12.7334C17.8753 13.3152 17.7222 14.3697 16.9314 14.744Z" fill="#FB9318"/>
</svg>
