<svg width="14" height="14" viewBox="0 0 14 14" fill="none" xmlns="http://www.w3.org/2000/svg">
<path d="M0.908074 12.2498C0.538455 12.6194 0.538455 13.2186 0.908074 13.5882C1.27768 13.9578 1.87693 13.9578 2.24655 13.5882L7.15432 8.68041L12.0621 13.5882C12.4317 13.9578 13.031 13.9578 13.4006 13.5882C13.7702 13.2186 13.7702 12.6194 13.4006 12.2498L8.49285 7.34196L13.4005 2.43424C13.7701 2.06462 13.7701 1.46536 13.4005 1.09576C13.0309 0.726138 12.4317 0.726138 12.0621 1.09576L7.15432 6.00348L2.24662 1.09576C1.877 0.726138 1.27774 0.726138 0.908137 1.09576C0.538518 1.46536 0.538518 2.06462 0.908137 2.43424L5.81586 7.34196L0.908074 12.2498Z" fill="#A6A4AD"/>
</svg>
