<svg width="14" height="14" viewBox="0 0 14 14" fill="none" xmlns="http://www.w3.org/2000/svg">
<path d="M0.908074 11.9981C0.538455 12.3677 0.538455 12.9669 0.908074 13.3365C1.27768 13.7061 1.87693 13.7061 2.24655 13.3365L7.15432 8.42872L12.0621 13.3365C12.4317 13.7061 13.031 13.7061 13.4006 13.3365C13.7702 12.9669 13.7702 12.3677 13.4006 11.9981L8.49285 7.09026L13.4005 2.18254C13.7701 1.81292 13.7701 1.21367 13.4005 0.844063C13.0309 0.474444 12.4317 0.474444 12.0621 0.844063L7.15432 5.75178L2.24662 0.844063C1.877 0.474444 1.27774 0.474444 0.908137 0.844063C0.538518 1.21367 0.538518 1.81292 0.908137 2.18254L5.81586 7.09026L0.908074 11.9981Z" fill="#A6A4AD"/>
</svg>
