<svg width="14" height="14" viewBox="0 0 14 14" fill="none" xmlns="http://www.w3.org/2000/svg">
<path d="M0.908074 11.8739C0.538455 12.2436 0.538455 12.8427 0.908074 13.2123C1.27768 13.582 1.87693 13.582 2.24655 13.2123L7.15432 8.30456L12.0621 13.2123C12.4317 13.582 13.031 13.582 13.4006 13.2123C13.7702 12.8427 13.7702 12.2436 13.4006 11.8739L8.49285 6.96611L13.4005 2.05839C13.7701 1.68877 13.7701 1.08952 13.4005 0.71991C13.0309 0.350291 12.4317 0.350291 12.0621 0.71991L7.15432 5.62763L2.24662 0.71991C1.877 0.350291 1.27774 0.350291 0.908137 0.71991C0.538518 1.08952 0.538518 1.68877 0.908137 2.05839L5.81586 6.96611L0.908074 11.8739Z" fill="#A6A4AD"/>
</svg>
