<svg width="14" height="14" viewBox="0 0 14 14" fill="none" xmlns="http://www.w3.org/2000/svg">
<path d="M0.908074 11.8739C0.538455 12.2435 0.538455 12.8427 0.908074 13.2123C1.27768 13.5819 1.87693 13.5819 2.24655 13.2123L7.15432 8.30456L12.0621 13.2123C12.4317 13.5819 13.031 13.5819 13.4006 13.2123C13.7702 12.8427 13.7702 12.2435 13.4006 11.8739L8.49285 6.9661L13.4005 2.05838C13.7701 1.68876 13.7701 1.08951 13.4005 0.719902C13.0309 0.350283 12.4317 0.350283 12.0621 0.719902L7.15432 5.62762L2.24662 0.719902C1.877 0.350283 1.27774 0.350283 0.908137 0.719902C0.538518 1.08951 0.538518 1.68876 0.908137 2.05838L5.81586 6.9661L0.908074 11.8739Z" fill="#A6A4AD"/>
</svg>
