<svg width="713" height="115" viewBox="0 0 713 115" fill="none" xmlns="http://www.w3.org/2000/svg">
<path d="M0 114.752C18.461 96.1603 68.9212 96.1603 68.9212 96.1603C68.9212 96.1603 79.9978 65.174 108.305 65.174C136.612 65.174 152.611 105.456 177.226 105.456C201.841 105.456 228.917 41.4177 254.762 41.4177C280.608 41.4177 285.531 105.456 329.837 105.456C374.144 105.456 375.374 3.20116 439.373 0.102523C503.371 -2.99612 445.526 65.174 503.371 65.174C561.216 65.174 521.832 36.2534 553.831 36.2533C585.83 36.2533 572.292 88.9302 607.984 65.174C643.675 41.4177 712.596 41.4177 712.596 41.4177" stroke="#F7931A" stroke-width="2"/>
</svg>
